HIERARCHY
ROOT Joint1
{
	OFFSET 0.000000 0.000000 0.000000
	CHANNELS 6 Xposition Yposition Zposition Xrotation Yrotation Zrotation
	JOINT Joint2
	{
		OFFSET -0.000000 0.000000 1.456275
		CHANNELS 6 Xposition Yposition Zposition Xrotation Yrotation Zrotation
		JOINT Joint3
		{
			OFFSET -0.000000 0.000002 1.471446
			CHANNELS 6 Xposition Yposition Zposition Xrotation Yrotation Zrotation
			JOINT Joint4
			{
				OFFSET 0.625745 0.000000 0.917755
				CHANNELS 6 Xposition Yposition Zposition Xrotation Yrotation Zrotation
				JOINT Joint5
				{
					OFFSET -0.629534 0.000001 0.940221
					CHANNELS 6 Xposition Yposition Zposition Xrotation Yrotation Zrotation
					JOINT Joint6
					{
						OFFSET -0.000001 0.113772 1.960660
						CHANNELS 6 Xposition Yposition Zposition Xrotation Yrotation Zrotation
						JOINT Joint7
						{
							OFFSET -0.669733 -0.113771 0.388340
							CHANNELS 6 Xposition Yposition Zposition Xrotation Yrotation Zrotation
							End Site
							{
								OFFSET 0.005509 0.005509 0.438980
							}
						}
					}
				}
			}
		}
	}
}
MOTION
Frames: 24
Frame Time: 0.041667
0.000000 0.000000 0.000000 -0.000000 1.019410 -70.049075 -0.000000 -0.000000 1.456275 -0.000001 83.455185 -0.000007 -0.000000 0.000002 1.471446 -0.000009 -1.133456 111.579254 0.625745 0.000000 0.917755 0.000002 153.248845 -0.000002 -0.629534 0.000001 0.940221 -0.000001 1.709736 117.369998 -0.000001 0.113772 1.960660 -88.303868 105.296293 0.000008 -0.669733 -0.113771 0.388340 -0.559189 3.555601 126.716647 
0.000000 0.000000 0.000000 -0.000000 1.019410 -69.991066 -0.000000 0.000000 1.456275 -0.000008 83.348798 0.000019 -0.000001 0.000002 1.471446 -0.000007 -1.133455 111.486794 0.625745 0.000001 0.917755 0.000002 153.233750 -0.000001 -0.629534 0.000001 0.940220 -0.000001 1.709735 117.272777 -0.000001 0.113772 1.960661 -88.303868 105.283603 0.000008 -0.669733 -0.113771 0.388340 -0.559310 3.555618 126.723478 
0.000000 0.000000 0.000000 -0.000000 1.019410 -69.896276 -0.000000 0.000000 1.456275 -0.000001 83.174963 -0.000002 -0.000000 0.000002 1.471446 -0.000008 -1.133455 111.335738 0.625745 0.000000 0.917755 0.000003 153.209093 -0.000001 -0.629534 0.000001 0.940221 -0.000001 1.709735 117.113893 -0.000001 0.113772 1.960660 -88.303868 105.262859 0.000007 -0.669733 -0.113771 0.388341 -0.559506 3.555648 126.734652 
0.000000 0.000000 0.000000 -0.000000 1.019410 -69.766236 -0.000000 0.000000 1.456275 0.000008 82.936515 -0.000007 -0.000000 0.000002 1.471446 -0.000006 -1.133454 111.128537 0.625745 0.000000 0.917755 0.000004 153.175270 -0.000002 -0.629533 0.000001 0.940221 -0.000001 1.709736 116.895983 -0.000001 0.113772 1.960661 -88.303868 105.234412 0.000008 -0.669733 -0.113771 0.388340 -0.559775 3.555685 126.749979 
0.000000 0.000000 0.000000 -0.000000 1.019410 -69.602530 -0.000000 -0.000000 1.456275 0.000016 82.636314 0.000006 -0.000000 0.000002 1.471446 -0.000007 -1.133454 110.867665 0.625745 0.000000 0.917755 0.000003 153.132677 0.000001 -0.629534 0.000001 0.940221 -0.000001 1.709736 116.621614 -0.000001 0.113772 1.960660 -88.303868 105.198594 0.000007 -0.669733 -0.113771 0.388340 -0.560114 3.555735 126.769267 
0.000000 0.000000 0.000000 -0.000000 1.019410 -69.406688 -0.000000 0.000000 1.456275 0.000004 82.277176 0.000000 -0.000000 0.000002 1.471446 -0.000007 -1.133454 110.555587 0.625745 0.000000 0.917755 0.000003 153.081724 0.000001 -0.629534 0.000001 0.940221 -0.000001 1.709736 116.293396 -0.000001 0.113772 1.960661 -88.303868 105.155735 0.000008 -0.669733 -0.113771 0.388340 -0.560520 3.555792 126.792353 
0.000000 0.000000 0.000000 -0.000000 1.019410 -69.180268 -0.000000 -0.000000 1.456275 0.000009 81.861976 -0.000005 -0.000000 0.000002 1.471446 -0.000009 -1.133455 110.194782 0.625744 0.000000 0.917755 0.000004 153.022821 -0.000000 -0.629534 0.000001 0.940221 -0.000001 1.709736 115.913938 -0.000001 0.113772 1.960660 -88.303868 105.106195 0.000008 -0.669733 -0.113771 0.388340 -0.560989 3.555862 126.819032 
0.000000 0.000000 0.000000 -0.000000 1.019410 -68.924819 -0.000000 0.000000 1.456275 -0.000007 81.393541 -0.000008 -0.000000 0.000002 1.471446 -0.000008 -1.133456 109.787716 0.625745 0.000000 0.917755 0.000003 152.956363 0.000002 -0.629534 0.000001 0.940220 -0.000001 1.709736 115.485822 -0.000001 0.113772 1.960661 -88.303868 105.050297 0.000008 -0.669733 -0.113771 0.388340 -0.561519 3.555937 126.849153 
0.000000 0.000000 0.000000 -0.000000 1.019410 -68.641899 -0.000000 0.000000 1.456275 0.000001 80.874706 0.000006 -0.000000 0.000002 1.471446 -0.000009 -1.133455 109.336869 0.625744 0.000000 0.917755 0.000003 152.882761 -0.000001 -0.629534 0.000001 0.940221 -0.000001 1.709736 115.011643 -0.000001 0.113772 1.960661 -88.303868 104.988402 0.000008 -0.669733 -0.113771 0.388340 -0.562105 3.556023 126.882484 
0.000000 0.000000 0.000000 -0.000000 1.019410 -68.333044 -0.000000 0.000000 1.456275 -0.000009 80.308333 -0.000003 -0.000000 0.000002 1.471446 -0.000005 -1.133454 108.844693 0.625745 0.000000 0.917755 0.000002 152.802397 -0.000000 -0.629534 0.000001 0.940220 -0.000001 1.709736 114.494031 -0.000001 0.113772 1.960661 -88.303868 104.920824 0.000008 -0.669733 -0.113771 0.388340 -0.562745 3.556112 126.918889 
0.000000 0.000000 0.000000 -0.000000 1.019410 -67.999813 -0.000000 0.000000 1.456275 0.000011 79.697256 -0.000009 -0.000000 0.000002 1.471445 -0.000008 -1.133454 108.313686 0.625745 0.000000 0.917755 0.000002 152.715708 -0.000001 -0.629534 0.000001 0.940221 -0.000001 1.709736 113.935540 -0.000001 0.113772 1.960660 -88.303868 104.847905 0.000008 -0.669733 -0.113771 0.388340 -0.563436 3.556210 126.958149 
0.000000 0.000000 0.000000 -0.000000 1.019410 -67.643755 -0.000000 -0.000000 1.456275 -0.000001 79.044318 -0.000001 -0.000000 0.000002 1.471446 -0.000007 -1.133455 107.746302 0.625745 0.000000 0.917754 0.000003 152.623077 -0.000001 -0.629533 0.000001 0.940221 -0.000001 1.709736 113.338820 -0.000001 0.113772 1.960661 -88.303868 104.770000 0.000009 -0.669733 -0.113771 0.388340 -0.564174 3.556312 127.000128 
0.000000 0.000000 0.000000 -0.000000 1.019410 -67.266421 -0.000000 0.000000 1.456275 -0.000005 78.352365 0.000004 -0.000000 0.000002 1.471446 -0.000009 -1.133455 107.145007 0.625744 0.000000 0.917755 0.000004 152.524913 -0.000002 -0.629533 0.000001 0.940221 -0.000001 1.709736 112.706427 -0.000002 0.113772 1.960660 -88.303868 104.687436 0.000006 -0.669733 -0.113771 0.388341 -0.564956 3.556423 127.044592 
0.000000 0.000000 0.000000 -0.000000 1.019410 -66.868536 -0.000000 0.000000 1.456275 -0.000008 77.622723 0.000001 -0.000001 0.000002 1.471445 -0.000008 -1.133456 106.510967 0.625744 0.000000 0.917755 0.000004 152.421395 0.000002 -0.629534 0.000000 0.940221 -0.000002 1.709736 112.039589 -0.000001 0.113772 1.960660 -88.303868 104.600372 0.000008 -0.669733 -0.113771 0.388340 -0.565780 3.556537 127.091475 
0.000000 0.000000 0.000000 -0.000000 1.019410 -66.447516 -0.000000 -0.000000 1.456275 0.000003 76.850673 0.000004 -0.000000 0.000002 1.471446 -0.000008 -1.133455 105.840065 0.625744 0.000000 0.917755 0.000004 152.311880 -0.000001 -0.629534 0.000001 0.940221 -0.000002 1.709736 111.333989 -0.000001 0.113772 1.960660 -88.303868 104.508253 0.000008 -0.669733 -0.113771 0.388341 -0.566654 3.556659 127.141089 
0.000000 0.000000 0.000000 -0.000000 1.019410 -65.999975 -0.000000 0.000000 1.456275 0.000002 76.029957 -0.000003 -0.000000 0.000002 1.471446 -0.000008 -1.133454 105.126877 0.625745 0.000000 0.917755 0.000003 152.195439 0.000001 -0.629534 0.000001 0.940221 -0.000001 1.709736 110.583925 -0.000001 0.113772 1.960660 -88.303868 104.410329 0.000011 -0.669733 -0.113771 0.388341 -0.567582 3.556784 127.193845 
0.000000 0.000000 0.000000 -0.000000 1.019410 -65.522490 -0.000000 0.000000 1.456275 -0.000004 75.154340 -0.000000 -0.000000 0.000002 1.471446 -0.000006 -1.133455 104.365994 0.625744 0.000000 0.917754 0.000005 152.071211 0.000000 -0.629534 0.000001 0.940221 -0.000001 1.709736 109.783686 -0.000001 0.113772 1.960661 -88.303868 104.305847 0.000008 -0.669733 -0.113771 0.388340 -0.568572 3.556922 127.250113 
0.000000 0.000000 0.000000 -0.000000 1.019410 -65.011660 -0.000000 -0.000000 1.456275 -0.000000 74.217587 -0.000004 -0.000000 0.000002 1.471446 -0.000008 -1.133455 103.551972 0.625744 0.000000 0.917755 0.000004 151.938309 -0.000001 -0.629534 0.000001 0.940221 -0.000001 1.709736 108.927563 -0.000001 0.113772 1.960660 -88.303868 104.194071 0.000007 -0.669733 -0.113771 0.388341 -0.569632 3.557065 127.310300 
0.000000 0.000000 0.000000 -0.000000 1.019410 -64.464090 -0.000000 -0.000000 1.456275 0.000005 73.213453 0.000005 -0.000000 0.000002 1.471445 -0.000007 -1.133454 102.679402 0.625745 0.000000 0.917755 0.000002 151.795859 -0.000001 -0.629534 0.000001 0.940221 0.000001 1.709737 108.009866 -0.000001 0.113772 1.960661 -88.303868 104.074263 0.000009 -0.669733 -0.113771 0.388341 -0.570768 3.557216 127.374832 
0.000000 0.000000 0.000000 -0.000000 1.019410 -63.873614 -0.000000 -0.000000 1.456275 -0.000004 72.130643 0.000005 -0.000000 0.000002 1.471446 -0.000007 -1.133453 101.738454 0.625744 0.000000 0.917755 0.000002 151.642248 -0.000000 -0.629534 0.000001 0.940221 -0.000002 1.709736 107.020253 -0.000001 0.113772 1.960660 -88.303868 103.945063 0.000005 -0.669733 -0.113771 0.388340 -0.571993 3.557378 127.444431 
0.000000 0.000000 0.000000 -0.000000 1.019410 -63.223031 -0.000000 -0.000000 1.456275 0.000000 70.937607 0.000001 -0.000000 0.000002 1.471446 -0.000009 -1.133457 100.701734 0.625745 0.000000 0.917755 0.000007 151.472982 0.000001 -0.629533 0.000001 0.940221 0.000001 1.709736 105.929923 -0.000001 0.113772 1.960661 -88.303868 103.802715 0.000014 -0.669733 -0.113771 0.388340 -0.573344 3.557558 127.521093 
0.000000 0.000000 0.000000 -0.000000 1.019410 -62.492399 -0.000000 0.000000 1.456275 0.000002 69.597763 0.000001 -0.000000 0.000002 1.471446 -0.000004 -1.133455 99.537446 0.625745 0.000000 0.917755 0.000002 151.282912 -0.000001 -0.629534 0.000001 0.940221 0.000000 1.709737 104.705413 -0.000001 0.113772 1.960661 -88.303868 103.642848 0.000008 -0.669733 -0.113771 0.388341 -0.574859 3.557757 127.607208 
0.000000 0.000000 0.000000 -0.000000 1.019410 -61.661753 -0.000000 -0.000000 1.456275 0.000006 68.074542 0.000003 -0.000000 0.000002 1.471446 -0.000008 -1.133454 98.213783 0.625745 0.000001 0.917755 0.000004 151.066805 -0.000000 -0.629534 0.000001 0.940221 0.000000 1.709736 103.313305 -0.000001 0.113772 1.960661 -88.303875 103.461096 0.000008 -0.669733 -0.113771 0.388341 -0.576585 3.557976 127.705099 
0.000000 0.000000 0.000000 -0.000000 1.019410 -60.729268 -0.000000 0.000000 1.456275 -0.000001 66.364550 -0.000004 -0.000000 0.000002 1.471445 -0.000008 -1.133456 96.727834 0.625744 0.000000 0.917755 0.000005 150.824210 -0.000001 -0.629534 0.000001 0.940221 -0.000002 1.709736 101.750510 -0.000001 0.113772 1.960660 -88.303862 103.257058 0.000000 -0.669734 -0.113771 0.388340 -0.578520 3.558225 127.814997 
